<svg xmlns="http://www.w3.org/2000/svg" xml:space="preserve" width="90mm" height="90mm" version="1.1" style="shape-rendering:geometricPrecision; text-rendering:geometricPrecision; image-rendering:optimizeQuality; fill-rule:evenodd; clip-rule:evenodd" viewBox="0 0 9000 9000" xmlns:xlink="http://www.w3.org/1999/xlink"><defs><style type="text/css"><![CDATA[.str0 {stroke:#2B2A29;stroke-width:20}.fil2 {fill:none}.fil0 {fill:#DBDBDB}.fil1 {fill:#ECECEC}]]></style></defs><g id="Слой_x0020_1"><metadata id="CorelCorpID_0Corel-Layer"/><g id="_675232544"><polygon class="fil0" points="0,0 9000,0 9000,9000 0,9000 "/><path class="fil1" d="M32 0l109 0 -141 141 0 -109 32 -32zm173 0l109 0 -314 314 0 -109 205 -205zm173 0l109 0 -487 487 0 -109 378 -378zm173 0l109 0 -660 660 0 -109 551 -551zm173 0l109 0 -834 834 0 -109 724 -724zm173 0l109 0 -1007 1007 0 -109 897 -897zm173 0l109 0 -1180 1180 0 -109 1070 -1070zm173 0l109 0 -1353 1353 0 -109 1243 -1243zm173 0l109 0 -1526 1526 0 -109 1416 -1416zm173 0l109 0 -1699 1699 0 -109 1590 -1590zm173 0l109 0 -1872 1872 0 -109 1763 -1763zm173 0l109 0 -2045 2045 0 -109 1936 -1936zm173 0l109 0 -2218 2218 0 -109 2109 -2109zm173 0l109 0 -2391 2391 0 -109 2282 -2282zm173 0l109 0 -2564 2564 0 -109 2455 -2455zm173 0l109 0 -2737 2737 0 -109 2628 -2628zm173 0l109 0 -2910 2910 0 -109 2801 -2801zm173 0l109 0 -3084 3084 0 -109 2974 -2974zm173 0l109 0 -3257 3257 0 -109 3147 -3147zm173 0l109 0 -3430 3430 0 -109 3320 -3320zm173 0l109 0 -3603 3603 0 -109 3493 -3493zm173 0l109 0 -3776 3776 0 -109 3666 -3666zm173 0l109 0 -3949 3949 0 -109 3840 -3840zm173 0l109 0 -4122 4122 0 -109 4013 -4013zm173 0l109 0 -4295 4295 0 -109 4186 -4186zm173 0l109 0 -4468 4468 0 -109 4359 -4359zm173 0l109 0 -4641 4641 0 -109 4532 -4532zm173 0l109 0 -4814 4814 0 -109 4705 -4705zm173 0l109 0 -4987 4987 0 -109 4878 -4878zm173 0l109 0 -5160 5160 0 -109 5051 -5051zm173 0l109 0 -5334 5334 0 -109 5224 -5224zm173 0l109 0 -5507 5507 0 -109 5397 -5397zm173 0l109 0 -5680 5680 0 -109 5570 -5570zm173 0l109 0 -5853 5853 0 -109 5743 -5743zm173 0l109 0 -6026 6026 0 -109 5916 -5916zm173 0l109 0 -6199 6199 0 -109 6090 -6090zm173 0l109 0 -6372 6372 0 -109 6263 -6263zm173 0l109 0 -6545 6545 0 -109 6436 -6436zm173 0l109 0 -6718 6718 0 -109 6609 -6609zm173 0l109 0 -6891 6891 0 -109 6782 -6782zm173 0l109 0 -7064 7064 0 -109 6955 -6955zm173 0l109 0 -7237 7237 0 -109 7128 -7128zm173 0l109 0 -7410 7410 0 -109 7301 -7301zm173 0l109 0 -7584 7584 0 -109 7474 -7474zm173 0l109 0 -7757 7757 0 -109 7647 -7647zm173 0l109 0 -7930 7930 0 -109 7820 -7820zm173 0l109 0 -8103 8103 0 -109 7993 -7993zm173 0l109 0 -8276 8276 0 -109 8166 -8166zm173 0l109 0 -8449 8449 0 -109 8340 -8340zm173 0l109 0 -8622 8622 0 -109 8513 -8513zm173 0l109 0 -8795 8795 0 -109 8686 -8686zm173 0l109 0 -8968 8968 0 -109 8859 -8859zm141 32l0 109 -8859 8859 -109 0 8968 -8968zm0 173l0 109 -8686 8686 -109 0 8795 -8795zm0 173l0 109 -8513 8513 -109 0 8622 -8622zm0 173l0 109 -8340 8340 -109 0 8449 -8449zm0 173l0 109 -8166 8166 -109 0 8276 -8276zm0 173l0 109 -7993 7993 -109 0 8103 -8103zm0 173l0 109 -7820 7820 -109 0 7930 -7930zm0 173l0 109 -7647 7647 -109 0 7757 -7757zm0 173l0 109 -7474 7474 -109 0 7584 -7584zm0 173l0 109 -7301 7301 -109 0 7410 -7410zm0 173l0 109 -7128 7128 -109 0 7237 -7237zm0 173l0 109 -6955 6955 -109 0 7064 -7064zm0 173l0 109 -6782 6782 -109 0 6891 -6891zm0 173l0 109 -6609 6609 -109 0 6718 -6718zm0 173l0 109 -6436 6436 -109 0 6545 -6545zm0 173l0 109 -6263 6263 -109 0 6372 -6372zm0 173l0 109 -6090 6090 -109 0 6199 -6199zm0 173l0 109 -5916 5916 -109 0 6026 -6026zm0 173l0 109 -5743 5743 -109 0 5853 -5853zm0 173l0 109 -5570 5570 -109 0 5680 -5680zm0 173l0 109 -5397 5397 -109 0 5507 -5507zm0 173l0 109 -5224 5224 -109 0 5334 -5334zm0 173l0 109 -5051 5051 -109 0 5160 -5160zm0 173l0 109 -4878 4878 -109 0 4987 -4987zm0 173l0 109 -4705 4705 -109 0 4814 -4814zm0 173l0 109 -4532 4532 -109 0 4641 -4641zm0 173l0 109 -4359 4359 -109 0 4468 -4468zm0 173l0 109 -4186 4186 -109 0 4295 -4295zm0 173l0 109 -4013 4013 -109 0 4122 -4122zm0 173l0 109 -3840 3840 -109 0 3949 -3949zm0 173l0 109 -3666 3666 -109 0 3776 -3776zm0 173l0 109 -3493 3493 -109 0 3603 -3603zm0 173l0 109 -3320 3320 -109 0 3430 -3430zm0 173l0 109 -3147 3147 -109 0 3257 -3257zm0 173l0 109 -2974 2974 -109 0 3084 -3084zm0 173l0 109 -2801 2801 -109 0 2910 -2910zm0 173l0 109 -2628 2628 -109 0 2737 -2737zm0 173l0 109 -2455 2455 -109 0 2564 -2564zm0 173l0 109 -2282 2282 -109 0 2391 -2391zm0 173l0 109 -2109 2109 -109 0 2218 -2218zm0 173l0 109 -1936 1936 -109 0 2045 -2045zm0 173l0 109 -1763 1763 -109 0 1872 -1872zm0 173l0 109 -1590 1590 -109 0 1699 -1699zm0 173l0 109 -1416 1416 -109 0 1526 -1526zm0 173l0 109 -1243 1243 -109 0 1353 -1353zm0 173l0 109 -1070 1070 -109 0 1180 -1180zm0 173l0 109 -897 897 -109 0 1007 -1007zm0 173l0 109 -724 724 -109 0 834 -834zm0 173l0 109 -551 551 -109 0 660 -660zm0 173l0 109 -378 378 -109 0 487 -487zm0 173l0 109 -205 205 -109 0 314 -314zm0 173l0 109 -32 32 -109 0 141 -141z"/></g></g></svg>
